<svg xmlns="http://www.w3.org/2000/svg" width="32mm" height="32mm" viewBox="0 0 32 32"><path d="M11.5 0C5.13 0 0 5.13 0 11.5v9C0 26.871 5.13 32 11.5 32h9C26.87 32 32 26.871 32 20.5v-9C32 5.13 26.87 0 20.5 0zM4 7h3v6.559c.99-1.227 2.71-1.852 4.195-1.852 3.207 0 5.805 2.403 5.805 6.36 0 4.03-2.62 6.433-5.8 6.433-1.512 0-3.21-.75-4.2-1.953V24H4zm15 5h10v2.5L23.134 21H29v3H19v-2.8l5.412-6.2H19zm-8.848 2.536c-1.069 0-2.605.6-3.152 1.402v4.28c.547.777 2.083 1.353 3.152 1.353 1.93 0 3.207-1.402 3.207-3.505 0-2.103-1.277-3.53-3.207-3.53z"/></svg>