<svg xmlns="http://www.w3.org/2000/svg" width="16mm" height="16mm" viewBox="0 0 16 16"><path d="M5.75 0A5.737 5.737 0 0 0 0 5.75v4.5A5.737 5.737 0 0 0 5.75 16h4.5A5.737 5.737 0 0 0 16 10.25v-4.5A5.737 5.737 0 0 0 10.25 0zM2 3.5h1.5v3.28c.495-.614 1.355-.927 2.098-.927C7.2 5.853 8.5 7.055 8.5 9.033c0 2.016-1.31 3.367-2.9 3.367-.756 0-1.605-.525-2.1-1.126V12H2zM9.5 6l5 .003V7.25l-2.933 3.25H14.5V12h-5v-1.4l2.706-3.1H9.5zM5.076 7.268c-.534 0-1.302.3-1.576.701v2.14c.274.389 1.042.676 1.576.676.965 0 1.604-.7 1.604-1.752s-.64-1.765-1.604-1.765z" fill="#fff"/></svg>