<svg xmlns="http://www.w3.org/2000/svg" width="16mm" height="16mm" viewBox="0 0 16 16"><path d="M5.75 0A5.737 5.737 0 0 0 0 5.75v4.5A5.737 5.737 0 0 0 5.75 16h4.5A5.737 5.737 0 0 0 16 10.25v-4.5A5.737 5.737 0 0 0 10.25 0zM2 3.7h1.656v3.08a2.46 2.46 0 0 1 1.942-.927c1.603 0 2.79 1.202 2.79 3.18 0 2.016-1.2 3.167-2.79 3.167a2.48 2.48 0 0 1-1.942-.926v.776H2zm7.364 2.303h5.084v1.152l-2.88 3.505H14.5v1.39H9.364v-1.19l2.842-3.467H9.364zM5.076 7.268c-.534 0-1.147.3-1.42.701v2.14c.273.389.886.676 1.42.676.965 0 1.604-.7 1.604-1.752s-.64-1.765-1.604-1.765z"/></svg>