<svg version="1" xmlns="http://www.w3.org/2000/svg" width="933.333" height="933.333" viewBox="0 0 700.000000 700.000000"><path d="M233.9.4c-.2.2-3.8.7-7.9 1-11.2 1.1-11.6 1.2-23.5 3.5-17.7 3.6-33.6 8.3-47.5 14.2-19.7 8.4-44.2 22.6-57.9 33.7-2.5 2-5.7 4.6-7 5.7-44.4 35.9-77 93.1-86.6 151.5-2.9 17.8-3 23.5-3 140C.5 473.9.5 475.4 5 497.5c1.2 6.1 2.3 11.7 2.5 12.5 1.8 7.2 3.7 13.8 4.4 15.5.5 1.1 2.4 6.3 4.2 11.5 7.2 20.8 23.5 49.5 39.3 69.1C65.7 618.8 82 635.3 92 643c2.4 1.9 5.3 4.3 6.5 5.3 4.7 4.3 25.3 17.2 36.7 23.1 21.6 11.3 46.8 20.1 68.5 24.1 1.6.2 3.9.7 5.3 1 1.4.3 4.3.7 6.5 1 2.2.3 6.7.8 10 1.2 7.9 1 237.6 1 248 0 10-.9 13.4-1.4 24-3.6 67.8-13.6 126.2-53.5 163-111.2 9.7-15.1 20.6-38.1 26.5-55.8 2.8-8.4 5.3-16.5 5.6-18 .2-1.4 1.3-6.9 2.3-12.1 2.4-11.8 2.9-14.6 3.8-24 1-9.6 1-238.1 0-248-.4-4.1-.9-8.9-1.2-10.5-.3-1.7-.7-4.4-1-6-7.3-43.7-28.4-88.9-56.3-121-9.4-10.8-26.1-27.1-33.1-32.3-2-1.5-4.5-3.5-5.6-4.5-4.6-4.2-26.8-18.2-37.7-23.8-24.6-12.5-55-22.2-79.8-25.4-2.5-.3-6.1-.9-8-1.2C472.4.6 234.6-.3 233.9.4zM160 211.7c-.1 27.4 0 57.7 0 67.2v17.5l6.3-6.6c11.6-12.2 25.2-21.2 40.6-26.8 8.1-3 9.6-3.4 18.6-5.1 11.4-2.3 36.3-1.5 48.3 1.5 1.2.3 3.1.8 4.3 1.1 4 .8 6.5 1.7 14.9 5.3 36.2 15.2 60.4 46.6 69.9 90.7 2.8 12.6 3.5 20.6 3.5 38.5 0 20.8-1.6 34-6.2 50.6-15.4 55-60.6 89-116.4 87.8-17.4-.3-30.4-3.2-44.4-9.8-14.2-6.7-23.2-13.3-34.6-25.1l-4.8-5V527H87.5V162H160v49.7zm472.1 61.8v25.3l-.1 14.4-6.3 7.6c-3.4 4.3-6.4 7.9-6.7 8.2-.3.3-3.4 4.1-7 8.5s-7.2 8.9-8.2 10c-1.8 2.2-21.7 26.3-36.7 44.6-5.3 6.4-13.2 16-17.6 21.4-4.4 5.4-9.6 11.7-11.5 14-1.9 2.3-5.1 6.1-7 8.5-1.9 2.4-5 6.2-6.9 8.4-1.8 2.3-4.8 5.9-6.6 8.1-1.8 2.2-4.9 6-6.9 8.3-2 2.4-3.6 4.7-3.6 5 0 .4 28.6.7 63.5.7 43.3-.1 63.5.3 63.6 1 .1.5.2 14.2.2 30.3l.2 29.2H522.4c-88.9 0-112.3-.3-112.6-1.2-.2-.7-.3-12.4-.2-26.1.1-20.3.4-25 1.6-26.5.8-.9 6.1-7.3 11.7-14.2 11.6-14.1 15.4-18.7 20.2-24.6 1.9-2.2 5-6 6.9-8.4 1.9-2.4 10.2-12.5 18.4-22.4 8.1-10 18.2-22.4 22.4-27.6 4.2-5.2 7.9-9.7 8.3-10 .3-.3 6.6-7.9 13.9-17 7.4-9.1 13.7-16.7 14-17 .3-.3 2-2.3 3.7-4.5l3.1-4.1-61.9.1H410l-.1-2.5c-.4-11.1-.1-56.9.3-57.6.4-.5 45.3-.9 111.2-.9H632l.1 11z"/><path d="M208.1 319.6c-17.8 3.8-33.9 12.6-43.9 24-3.6 3.9-4.2 5.4-4.2 9v90.3l5.3 5.4c19.6 20.2 55.4 28.9 81.2 19.5 9.4-3.4 16.4-7.8 23.6-14.8 11.1-10.8 17.5-23.4 20.5-40 1.5-8.5 1.9-22.3.9-29.3-.3-2-.7-5.3-1-7.3-.9-6-5.4-18.5-9.2-25.4-4.7-8.3-16-19.7-24.3-24.2-13.7-7.6-33.6-10.5-48.9-7.2z"/></svg>