<?xml version="1.0" encoding="UTF-8" standalone="no"?>
<!-- Created with Inkscape (http://www.inkscape.org/) -->

<svg
   xmlns:dc="http://purl.org/dc/elements/1.1/"
   xmlns:cc="http://creativecommons.org/ns#"
   xmlns:rdf="http://www.w3.org/1999/02/22-rdf-syntax-ns#"
   xmlns:svg="http://www.w3.org/2000/svg"
   xmlns="http://www.w3.org/2000/svg"
   xmlns:sodipodi="http://sodipodi.sourceforge.net/DTD/sodipodi-0.dtd"
   xmlns:inkscape="http://www.inkscape.org/namespaces/inkscape"
   width="32mm"
   height="32mm"
   viewBox="0 0 32 32"
   version="1.1"
   id="svg8"
   sodipodi:docname="icon-32x32.svg"
   inkscape:export-filename="/Users/bennettzhang/Programs/personal-website/src/images/logo.png"
   inkscape:export-xdpi="96"
   inkscape:export-ydpi="96"
   inkscape:version="0.92.2 5c3e80d, 2017-08-06">
  <defs
     id="defs2" />
  <sodipodi:namedview
     id="base"
     pagecolor="#ffffff"
     bordercolor="#666666"
     borderopacity="1.0"
     inkscape:pageopacity="0.0"
     inkscape:pageshadow="2"
     inkscape:zoom="2.8"
     inkscape:cx="47.908352"
     inkscape:cy="54.568427"
     inkscape:document-units="mm"
     inkscape:current-layer="svg8"
     showgrid="false"
     inkscape:window-width="1393"
     inkscape:window-height="855"
     inkscape:window-x="47"
     inkscape:window-y="1"
     inkscape:window-maximized="1" />
  <metadata
     id="metadata5">
    <rdf:RDF>
      <cc:Work
         rdf:about="">
        <dc:format>image/svg+xml</dc:format>
        <dc:type
           rdf:resource="http://purl.org/dc/dcmitype/StillImage" />
        <dc:title></dc:title>
      </cc:Work>
    </rdf:RDF>
  </metadata>
  <g
     inkscape:label="Layer 1"
     inkscape:groupmode="layer"
     id="layer1"
     transform="translate(0,-265)" />
  <path
     style="fill:#000000;stroke-width:0.54985684"
     d="M 11.500032,5.7e-5 C 5.129055,5.7e-5 0,5.129112 0,11.500089 v 8.999935 c 0,6.370977 5.129055,11.500033 11.500032,11.500033 h 8.999936 C 26.870945,32.000057 32,26.871001 32,20.500024 V 11.500089 C 32,5.129112 26.870945,5.7e-5 20.499968,5.7e-5 Z M 3.9997417,7.0000329 h 3.0002337 v 6.5588381 c 0.9906764,-1.2268 2.7091529,-1.852077 4.1951666,-1.852077 3.206663,0 5.804798,2.403476 5.804798,6.359279 0,4.030913 -2.619387,6.433928 -5.799979,6.433928 -1.5120847,0 -3.2093092,-0.750801 -4.1999856,-1.952564 v 1.452535 H 3.9997417 Z m 15.0001913,4.9999821 9.999964,-1.4e-5 v 2.500002 l -5.865474,6.499977 h 5.865254 v 2.999992 h -9.999744 v -2.79999 l 5.411927,-6.199977 h -5.411927 z m -8.847617,2.535537 c -1.0688876,0 -2.6048614,0.601318 -3.1523406,1.402493 v 4.28086 c 0.5474792,0.776139 2.083453,1.351851 3.1523406,1.351851 1.929211,0 3.207028,-1.401597 3.207028,-3.504683 0,-2.103085 -1.277817,-3.530521 -3.207028,-3.530521 z"
     id="rect37"
     inkscape:connector-curvature="0"
     sodipodi:nodetypes="ssssssssscccssscccccccccccccccsccsss" />
</svg>
