<?xml version="1.0" encoding="UTF-8" standalone="no"?>
<!-- Created with Inkscape (http://www.inkscape.org/) -->

<svg
   xmlns:dc="http://purl.org/dc/elements/1.1/"
   xmlns:cc="http://creativecommons.org/ns#"
   xmlns:rdf="http://www.w3.org/1999/02/22-rdf-syntax-ns#"
   xmlns:svg="http://www.w3.org/2000/svg"
   xmlns="http://www.w3.org/2000/svg"
   xmlns:sodipodi="http://sodipodi.sourceforge.net/DTD/sodipodi-0.dtd"
   xmlns:inkscape="http://www.inkscape.org/namespaces/inkscape"
   width="16mm"
   height="16mm"
   viewBox="0 0 16 16"
   version="1.1"
   id="svg8"
   sodipodi:docname="logo-light.svg"
   inkscape:export-filename="/Users/bennettzhang/Programs/personal-website/src/images/logo.png"
   inkscape:export-xdpi="96"
   inkscape:export-ydpi="96"
   inkscape:version="0.92.2 5c3e80d, 2017-08-06">
  <defs
     id="defs2" />
  <sodipodi:namedview
     id="base"
     pagecolor="#ffffff"
     bordercolor="#666666"
     borderopacity="1.0"
     inkscape:pageopacity="0.0"
     inkscape:pageshadow="2"
     inkscape:zoom="5.6"
     inkscape:cx="29.465411"
     inkscape:cy="36.870942"
     inkscape:document-units="mm"
     inkscape:current-layer="svg8"
     showgrid="false"
     inkscape:window-width="1393"
     inkscape:window-height="855"
     inkscape:window-x="47"
     inkscape:window-y="1"
     inkscape:window-maximized="1" />
  <metadata
     id="metadata5">
    <rdf:RDF>
      <cc:Work
         rdf:about="">
        <dc:format>image/svg+xml</dc:format>
        <dc:type
           rdf:resource="http://purl.org/dc/dcmitype/StillImage" />
        <dc:title></dc:title>
      </cc:Work>
    </rdf:RDF>
  </metadata>
  <g
     inkscape:label="Layer 1"
     inkscape:groupmode="layer"
     id="layer1"
     transform="translate(0,-281)" />
  <path
     style="fill:#ffffff;stroke-width:1.03910327"
     d="M 21.732422,0 C 9.6927368,0 0,9.6927368 0,21.732422 v 17.007812 c 0,12.039685 9.6927368,21.732422 21.732422,21.732422 h 17.007812 c 12.039685,0 21.732422,-9.692737 21.732422,-21.732422 V 21.732422 C 60.472656,9.6927368 50.779919,0 38.740234,0 Z M 7.5585938,13.228348 h 5.6697532 v 12.394699 c 1.872151,-2.31837 5.119677,-3.5 7.927903,-3.5 6.059856,0 10.969735,4.542017 10.969735,12.017578 0,7.617502 -4.950041,12.725519 -10.96063,12.725519 -2.857493,0 -6.064857,-1.985713 -7.937008,-4.256769 v 2.744958 H 7.5585938 Z m 28.3469182,9.448819 18.897638,0.01229 v 4.71212 l -11.0844,12.283465 h 11.083984 v 5.669291 H 35.905512 v -5.291339 l 10.2273,-11.716535 h -10.2273 z M 19.185547,27.46875 c -2.019952,0 -4.92259,1.136353 -5.9572,2.650391 v 8.089843 c 1.03461,1.466724 3.937248,2.554688 5.9572,2.554688 3.645767,0 6.060547,-2.648698 6.060547,-6.623047 0,-3.974349 -2.41478,-6.671875 -6.060547,-6.671875 z"
     transform="scale(0.26458333)"
     id="rect37"
     inkscape:connector-curvature="0"
     sodipodi:nodetypes="ssssssssscccssscccccccccccccccsccsss" />
</svg>
