<?xml version="1.0" encoding="UTF-8" standalone="no"?>
<!-- Created with Inkscape (http://www.inkscape.org/) -->

<svg
   xmlns:dc="http://purl.org/dc/elements/1.1/"
   xmlns:cc="http://creativecommons.org/ns#"
   xmlns:rdf="http://www.w3.org/1999/02/22-rdf-syntax-ns#"
   xmlns:svg="http://www.w3.org/2000/svg"
   xmlns="http://www.w3.org/2000/svg"
   xmlns:sodipodi="http://sodipodi.sourceforge.net/DTD/sodipodi-0.dtd"
   xmlns:inkscape="http://www.inkscape.org/namespaces/inkscape"
   width="16mm"
   height="16mm"
   viewBox="0 0 16 16"
   version="1.1"
   id="svg8"
   sodipodi:docname="logo.svg"
   inkscape:export-filename="/Users/bennettzhang/Programs/personal-website/src/images/logo.png"
   inkscape:export-xdpi="96"
   inkscape:export-ydpi="96"
   inkscape:version="0.92.2 5c3e80d, 2017-08-06">
  <defs
     id="defs2" />
  <sodipodi:namedview
     id="base"
     pagecolor="#ffffff"
     bordercolor="#666666"
     borderopacity="1.0"
     inkscape:pageopacity="0.0"
     inkscape:pageshadow="2"
     inkscape:zoom="5.6"
     inkscape:cx="29.465411"
     inkscape:cy="36.870942"
     inkscape:document-units="mm"
     inkscape:current-layer="svg8"
     showgrid="false"
     inkscape:window-width="1393"
     inkscape:window-height="855"
     inkscape:window-x="47"
     inkscape:window-y="1"
     inkscape:window-maximized="1" />
  <metadata
     id="metadata5">
    <rdf:RDF>
      <cc:Work
         rdf:about="">
        <dc:format>image/svg+xml</dc:format>
        <dc:type
           rdf:resource="http://purl.org/dc/dcmitype/StillImage" />
        <dc:title></dc:title>
      </cc:Work>
    </rdf:RDF>
  </metadata>
  <g
     inkscape:label="Layer 1"
     inkscape:groupmode="layer"
     id="layer1"
     transform="translate(0,-281)" />
  <path
     style="fill:#000000;stroke-width:1.03910327"
     d="M 21.732422,0 C 9.6927368,0 0,9.6927368 0,21.732422 v 17.007812 c 0,12.039685 9.6927368,21.732422 21.732422,21.732422 h 17.007812 c 12.039685,0 21.732422,-9.692737 21.732422,-21.732422 V 21.732422 C 60.472656,9.6927368 50.779919,0 38.740234,0 Z m -14.1738282,13.984254 6.2578122,0 v 11.638793 c 1.872151,-2.31837 4.531618,-3.5 7.339844,-3.5 6.059856,0 10.542969,4.542017 10.542969,12.017578 0,7.617502 -4.53238,11.96875 -10.542969,11.96875 -2.857493,0 -5.467693,-1.228944 -7.339844,-3.5 v 2.933594 H 7.5585938 Z m 27.8339842,8.705199 h 19.212891 v 4.353516 L 43.71875,40.291016 h 11.083984 v 5.251953 H 35.392578 V 41.046875 L 46.132812,27.941406 H 35.392578 Z M 19.185547,27.46875 c -2.019952,0 -4.334531,1.136353 -5.369141,2.650391 v 8.089843 c 1.03461,1.466724 3.349189,2.554688 5.369141,2.554688 3.645767,0 6.060547,-2.648698 6.060547,-6.623047 0,-3.974349 -2.41478,-6.671875 -6.060547,-6.671875 z"
     transform="scale(0.26458333)"
     id="rect37"
     inkscape:connector-curvature="0"
     sodipodi:nodetypes="ssssssssscccssscccccccccccccccsccsss" />
</svg>
