<?xml version="1.0" standalone="no"?>
<!DOCTYPE svg PUBLIC "-//W3C//DTD SVG 20010904//EN"
 "http://www.w3.org/TR/2001/REC-SVG-20010904/DTD/svg10.dtd">
<svg version="1.0" xmlns="http://www.w3.org/2000/svg"
 width="700.000000pt" height="700.000000pt" viewBox="0 0 700.000000 700.000000"
 preserveAspectRatio="xMidYMid meet">
<metadata>
Created by potrace 1.11, written by Peter Selinger 2001-2013
</metadata>
<g transform="translate(0.000000,700.000000) scale(0.100000,-0.100000)"
fill="#000000" stroke="none">
<path d="M2339 6996 c-2 -2 -38 -7 -79 -10 -112 -11 -116 -12 -235 -35 -177
-36 -336 -83 -475 -142 -197 -84 -442 -226 -579 -337 -25 -20 -57 -46 -70 -57
-444 -359 -770 -931 -866 -1515 -29 -178 -30 -235 -30 -1400 0 -1239 0 -1254
45 -1475 12 -61 23 -117 25 -125 18 -72 37 -138 44 -155 5 -11 24 -63 42 -115
72 -208 235 -495 393 -691 103 -127 266 -292 366 -369 24 -19 53 -43 65 -53
47 -43 253 -172 367 -231 216 -113 468 -201 685 -241 16 -2 39 -7 53 -10 14
-3 43 -7 65 -10 22 -3 67 -8 100 -12 79 -10 2376 -10 2480 0 100 9 134 14 240
36 678 136 1262 535 1630 1112 97 151 206 381 265 558 28 84 53 165 56 180 2
14 13 69 23 121 24 118 29 146 38 240 10 96 10 2381 0 2480 -4 41 -9 89 -12
105 -3 17 -7 44 -10 60 -73 437 -284 889 -563 1210 -94 108 -261 271 -331 323
-20 15 -45 35 -56 45 -46 42 -268 182 -377 238 -246 125 -550 222 -798 254
-25 3 -61 9 -80 12 -36 7 -2414 16 -2421 9z m-739 -2113 c-1 -274 0 -577 0
-672 l0 -175 63 66 c116 122 252 212 406 268 81 30 96 34 186 51 114 23 363
15 483 -15 12 -3 31 -8 43 -11 40 -8 65 -17 149 -53 362 -152 604 -466 699
-907 28 -126 35 -206 35 -385 0 -208 -16 -340 -62 -506 -154 -550 -606 -890
-1164 -878 -174 3 -304 32 -444 98 -142 67 -232 133 -346 251 l-48 50 0 -167
0 -168 -363 0 -362 0 0 1825 0 1825 362 0 363 0 0 -497z m4721 -618 c0 -60 0
-175 0 -253 l-1 -144 -63 -76 c-34 -43 -64 -79 -67 -82 -3 -3 -34 -41 -70 -85
-36 -44 -72 -89 -82 -100 -18 -22 -217 -263 -367 -446 -53 -64 -132 -160 -176
-214 -44 -54 -96 -117 -115 -140 -19 -23 -51 -61 -70 -85 -19 -24 -50 -62 -69
-84 -18 -23 -48 -59 -66 -81 -18 -22 -49 -60 -69 -83 -20 -24 -36 -47 -36 -50
0 -4 286 -7 635 -7 433 1 635 -3 636 -10 1 -5 2 -142 2 -303 l2 -292 -1121 0
c-889 0 -1123 3 -1126 12 -2 7 -3 124 -2 261 1 203 4 250 16 265 8 9 61 73
117 142 116 141 154 187 202 246 19 22 50 60 69 84 19 24 102 125 184 224 81
100 182 224 224 276 42 52 79 97 83 100 3 3 66 79 139 170 74 91 137 167 140
170 3 3 20 23 37 45 l31 41 -619 -1 -619 0 -1 25 c-4 111 -1 569 3 576 4 5
453 9 1112 9 l1106 0 1 -110z"/>
<path d="M2081 3804 c-178 -38 -339 -126 -439 -240 -36 -39 -42 -54 -42 -90 0
-24 0 -172 0 -329 0 -157 0 -350 0 -429 l0 -145 53 -54 c196 -202 554 -289
812 -195 94 34 164 78 236 148 111 108 175 234 205 400 15 85 19 223 9 293 -3
20 -7 53 -10 73 -9 60 -54 185 -92 254 -47 83 -160 197 -243 242 -137 76 -336
105 -489 72z"/>
</g>
</svg>
